<svg width="155" height="40" viewBox="0 0 155 40" fill="none" xmlns="http://www.w3.org/2000/svg">
<path fill-rule="evenodd" clip-rule="evenodd" d="M131.035 5.71782V30.2758C131.021 30.6753 131.17 31.0633 131.449 31.353C131.728 31.6424 132.113 31.8091 132.518 31.8156H132.958C133.37 31.8156 133.763 31.6524 134.051 31.3627C134.339 31.073 134.496 30.6815 134.488 30.2758L134.485 5.71782H137.373V30.9249C137.383 32.8225 135.848 34.3766 133.925 34.4146H131.723C130.779 34.4259 129.871 34.0627 129.201 33.4065C128.532 32.7504 128.158 31.8562 128.162 30.9249V5.71782H131.035ZM151.513 5.43404C153.437 5.47335 155 7.26033 155 9.20752V11.4867C154.999 11.8101 154.782 12.0941 154.468 12.184L152.079 12.8604V9.57585C152.079 8.74226 151.394 8.06645 150.55 8.06645C149.705 8.06645 149.02 8.74226 149.02 9.57585V12.2928C149.02 13.9592 150.262 16.1086 150.262 16.1086L153.703 22.6623C155.107 25.2616 154.985 27.1695 154.985 27.1695V30.7922C154.995 31.745 154.621 32.6629 153.944 33.3427C153.267 34.0226 152.344 34.4084 151.378 34.4146H149.574C147.625 34.3061 146.098 32.7189 146.09 30.7922V26.7317C146.09 26.4083 146.307 26.1242 146.622 26.0343L149.017 25.3582V30.3151C149.028 31.1486 149.722 31.8158 150.566 31.8048C151.411 31.794 152.087 31.1096 152.076 30.2758V27.0276C152.076 25.3642 150.834 23.1725 150.834 23.1725L147.387 16.6368C145.983 14.0375 146.102 12.1296 146.102 12.1296V9.20752C146.102 7.22102 147.708 5.43404 149.711 5.43404H151.513ZM97.1588 5.43404C99.1093 5.53689 100.636 7.12894 100.634 9.05647V30.8433C100.609 32.7512 99.0891 34.3131 97.1588 34.4146H94.9534C92.9749 34.3807 91.3798 32.805 91.3471 30.8525V9.05647C91.3365 8.10361 91.7112 7.18575 92.3878 6.5059C93.0644 5.82606 93.9878 5.4405 94.9534 5.43404H97.1588ZM64.0875 5.71782L63.3902 8.11465C63.2998 8.4259 63.0114 8.64022 62.6836 8.63995H58.0739V17.7749H62.861L62.1667 20.175C62.0752 20.4849 61.7871 20.6979 61.4601 20.6971H58.0739V31.248H64.0875L63.4114 33.6055C63.3205 33.9162 63.0327 34.1303 62.7048 34.1308H55.1895V5.71782H64.0875ZM115.404 5.71782C117.39 5.73452 118.99 7.32953 118.986 9.2891V30.5595C118.99 32.5194 117.39 34.1144 115.404 34.1308H109.831V5.71782H115.404ZM77.4879 14.8528L80.1428 5.71782H83.0885L78.9623 19.9243L83.0885 34.1308H80.1428L77.4879 24.9958L74.8328 34.1308H71.8874L76.0136 19.9243L71.8874 5.71782H74.8328L77.4879 14.8528ZM96.1922 31.8578C96.6087 31.8514 97.0051 31.6804 97.2927 31.3829C97.5802 31.0856 97.7348 30.6866 97.7217 30.2758V9.57289C97.7348 9.16202 97.5802 8.76299 97.2927 8.46575C97.0051 8.16823 96.6087 7.99726 96.1922 7.9908H95.7517C94.896 8.03118 94.2232 8.72718 94.2224 9.57289V30.2758C94.2232 31.1215 94.896 31.8175 95.7517 31.8578H96.1922ZM114.594 31.2569C115.404 31.2569 116.123 30.8433 116.123 29.7475V10.1011C116.123 9.04759 115.398 8.63995 114.594 8.63995H112.713V31.2569H114.594Z" fill="#3A3A44"/>
<path d="M28.3327 19.9999L40.4099 31.9547H36.1484C35.4179 31.9539 34.7176 31.666 34.2015 31.1545L22.9602 19.9999L34.2105 8.83639C34.7282 8.32805 35.4285 8.04373 36.1577 8.04534H40.4099L28.3327 19.9999ZM6.19936 8.83639C5.68162 8.32805 4.98131 8.04373 4.25217 8.04534H0L12.0771 19.9999L0 31.9547H4.26142C4.99192 31.9539 5.69223 31.666 6.20834 31.1545L17.4497 19.9999L6.19936 8.83639ZM20.2049 22.7273L8.92685 33.8636C8.41346 34.376 8.12616 35.069 8.12779 35.7909V40L20.2049 28.0455L32.2818 40V35.7909C32.2837 35.069 31.9964 34.376 31.483 33.8636L20.2049 22.7273ZM20.2049 17.2727L31.483 6.13639C31.9964 5.62401 32.2837 4.93097 32.2818 4.20912V0L20.2049 11.9545L8.12779 0V4.20912C8.12616 4.93097 8.41346 5.62401 8.92685 6.13639L20.2049 17.2727Z" fill="url(#paint0_linear_1_724)"/>
<defs>
<linearGradient id="paint0_linear_1_724" x1="0" y1="20" x2="40.4099" y2="20" gradientUnits="userSpaceOnUse">
<stop stop-color="#EC6F66"/>
<stop offset="1" stop-color="#F3A183"/>
</linearGradient>
</defs>
</svg>
